<svg xmlns="http://www.w3.org/2000/svg" width="20.536" height="20.536" viewBox="0 0 20.536 20.536"><defs><style>.a{fill:#fff;}</style></defs><g transform="translate(0 0)"><path class="a" d="M1612.545,3280.742h1.845a.887.887,0,0,0,.116.028,9.9,9.9,0,0,1,3.825,1.173,10.205,10.205,0,0,1,5.1,6.472,15.236,15.236,0,0,1,.306,1.673v1.845c-.057.363-.1.729-.175,1.087a10.228,10.228,0,0,1-5.484,7.192,8.078,8.078,0,0,1-1.087.467c-.136.048-.207.015-.2-.138,0-.04,0-.08,0-.12q0-2.788,0-5.575c0-.315,0-.315.326-.316.883,0,1.765,0,2.647,0,.134,0,.236-.013.236-.189q-.006-1.4,0-2.807c0-.135-.053-.2-.19-.194-.207,0-.415,0-.622,0h-2.166c-.12,0-.232,0-.231-.172,0-.542-.016-1.084.011-1.624a.79.79,0,0,1,.906-.831q1.012,0,2.025,0c.255,0,.265-.009.265-.257q0-1.333,0-2.667c0-.253-.01-.263-.259-.264h-2.266a3.707,3.707,0,0,0-.7.064,4.062,4.062,0,0,0-3.177,3.571c-.057.615-.023,1.229-.034,1.843-.006.335,0,.337-.33.337-.661,0-1.323.005-1.985,0-.19,0-.259.058-.256.253q.011,1.343,0,2.687c0,.192.06.258.254.255.668-.009,1.337,0,2.006,0,.309,0,.31,0,.31.313q0,2.476,0,4.953c0,.5-.005.99-.008,1.484h-1c-.052-.011-.1-.028-.155-.034a10,10,0,0,1-3.786-1.17,10.215,10.215,0,0,1-5.1-6.469,15.165,15.165,0,0,1-.306-1.672v-1.845c.022-.138.047-.276.064-.414a10.3,10.3,0,0,1,7.608-8.627C1611.423,3280.9,1611.986,3280.831,1612.545,3280.742Z" transform="translate(-1603.2 -3280.742)"/></g></svg>