<svg xmlns="http://www.w3.org/2000/svg" width="20.408" height="20.407" viewBox="0 0 20.408 20.407"><defs><style>.a{fill:#fff;}</style></defs><g transform="translate(0 0)"><path class="a" d="M1685.022,3280.839a10.2,10.2,0,1,0,10.2,10.2A10.2,10.2,0,0,0,1685.022,3280.839Zm6.519,13.559c-.056.04-.05.106-.064.162a3.777,3.777,0,0,1-2.938,2.938c-.057.014-.122.009-.162.064h-6.712c-.04-.056-.106-.05-.161-.064a3.778,3.778,0,0,1-2.941-2.948c-.01-.042.01-.108-.061-.123v-6.74c.084-.1.068-.224.1-.336a3.792,3.792,0,0,1,2.871-2.758c.065-.017.139-.011.19-.069h6.712c.055.06.134.056.2.072a3.669,3.669,0,0,1,1.715.883,3.757,3.757,0,0,1,1.185,2.061c.011.052.008.112.06.148Z" transform="translate(-1674.818 -3280.839)"/><path class="a" d="M1688.94,3292.441a2.493,2.493,0,1,0,2.466,2.51A2.5,2.5,0,0,0,1688.94,3292.441Z" transform="translate(-1678.71 -3284.73)"/><path class="a" d="M1692.543,3289.328a2.673,2.673,0,0,0-2.411-1.4c-1.829-.009-3.658,0-5.487,0-.082,0-.166,0-.247.007a2.746,2.746,0,0,0-2.495,2.756c0,.912,0,1.825,0,2.737s0,1.806,0,2.71a2.688,2.688,0,0,0,.008.3,2.748,2.748,0,0,0,2.759,2.479q2.708,0,5.418,0a3.421,3.421,0,0,0,.438-.025,2.738,2.738,0,0,0,2.363-2.664c.01-1.875,0-3.75,0-5.625A2.477,2.477,0,0,0,1692.543,3289.328Zm-5.135,7.619a3.529,3.529,0,1,1,3.519-3.54A3.542,3.542,0,0,1,1687.408,3296.947Zm3.748-6.52a.778.778,0,0,1-.768-.772.769.769,0,0,1,1.539.005A.772.772,0,0,1,1691.156,3290.427Z" transform="translate(-1677.194 -3283.214)"/></g></svg>