<svg xmlns="http://www.w3.org/2000/svg" width="20.749" height="20.749" viewBox="0 0 20.749 20.749"><defs><style>.a{fill:#fff;}</style></defs><g transform="translate(0 0)"><path class="a" d="M1542.392,3280.582h1.02a.544.544,0,0,0,.076.013c.245.012.488.037.732.066a10.164,10.164,0,0,1,1.986.453,10.4,10.4,0,0,1,6.143,5.527,9.979,9.979,0,0,1,.907,3.582.744.744,0,0,0,.013.076v1.331a.647.647,0,0,0-.013.085,4.964,4.964,0,0,1-.059.636,10.37,10.37,0,0,1-2.946,5.948,10.067,10.067,0,0,1-.958.847,10.324,10.324,0,0,1-3.751,1.859,10.215,10.215,0,0,1-1.717.3,1.54,1.54,0,0,0-.274.027h-1.28a.737.737,0,0,0-.076-.013c-.311-.018-.619-.055-.927-.1a10.374,10.374,0,0,1-8.72-9.569.588.588,0,0,0-.029-.17v-1.02a.688.688,0,0,0,.03-.187,9.13,9.13,0,0,1,.114-1,10.389,10.389,0,0,1,7.592-8.343,10.183,10.183,0,0,1,1.855-.312A1.382,1.382,0,0,0,1542.392,3280.582Zm1.4,9a.154.154,0,0,1-.015-.1c0-.244,0-.49,0-.735,0-.122,0-.124-.128-.125h-1.919c-.122,0-.125,0-.125.128v7.089c0,.123,0,.125.127.126h1.893c.151,0,.151,0,.151-.154q0-1.824,0-3.648a3.265,3.265,0,0,1,.018-.388,1.947,1.947,0,0,1,.174-.631,1.165,1.165,0,0,1,.7-.618,1.574,1.574,0,0,1,.794-.048,1.025,1.025,0,0,1,.73.531,1.634,1.634,0,0,1,.167.461,3.318,3.318,0,0,1,.064.7q0,1.828,0,3.656c0,.138,0,.141.14.141h2.04a.06.06,0,0,0,.065-.064c0-.035,0-.069,0-.1q0-2.213,0-4.426a5,5,0,0,0-.036-.638,3.124,3.124,0,0,0-.326-1.078,2.19,2.19,0,0,0-1.02-.986,2.918,2.918,0,0,0-1.79-.224,2.514,2.514,0,0,0-1.648,1.066C1543.831,3289.537,1543.822,3289.567,1543.787,3289.582Zm-5.921,2.716v3.552c0,.113.006.118.117.119h2.005c.137,0,.139,0,.139-.142v-7.062c0-.138,0-.14-.14-.14h-1.971c-.15,0-.151,0-.151.154Q1537.865,3290.539,1537.866,3292.3Zm-.213-6a1.337,1.337,0,1,0,1.34-1.35A1.329,1.329,0,0,0,1537.653,3286.3Z" transform="translate(-1532.519 -3280.582)"/></g></svg>