<svg id="Layer_1" data-name="Layer 1" xmlns="http://www.w3.org/2000/svg" viewBox="0 0 3471.54 2919.22">
  <defs>
    <style>
      .cls-1 {
        fill: #1a1a1a;
      }

      .cls-2 {
        fill: #ededed;
      }
    </style>
  </defs>
  <g>
    <path class="cls-1" d="M2791.48,540.43C2463.7,537.47,2173.73,700,2000,949.56c-173.89-249.73-464.17-412.34-792.26-409.12-525.08,5.15-949.08,438.34-943.48,963.41a948.27,948.27,0,0,0,130.17,470.7c78.9,162.1,207.6,367.94,416.05,586.87,151.78-40.13,784.15-244.79,868-883.69,0,0,40.88,381.59,231.66,363.4s576.94-268,127.21-1017.52c0,0,640.5-154.48,772.25,0s99.94,249.84,268,227.11,399.74-90.87,399.74,90.87,109,767.68-876.73,799.48c0,0-172.63-112.54-329.65-130.85,0,0,45,149-9.54,226.26s-183.23,140.82-205.91,263.45,20.1,173-14.16,219.06c-29.26,39.39-95.88,51.52-49.45,135.31,101.51,183.14,253.36,153.41,259.43,173.6,5.16,17.17-229.54,207-424,263.1-34,9.82-66.82,15.53-96.86,15.53-201.88,0-149.39-28.28-218,60.55s210.88,118,349.4,68.66c35.75-12.72,88.25-36.89,149.19-67.25,228.37-104.56,426.61-215.46,598.61-328.66a6.08,6.08,0,0,0,.59-.35l.12-.08c542.31-357,823.78-736.46,968.2-1011.48,16.23-30.9,32.57-61.75,48.78-92.67a948.42,948.42,0,0,0,108.37-432.2C3740.89,978,3316.54,545.17,2791.48,540.43ZM1077.59,1199.2c.9-41,2.31-76.9,8.92-112.3a162.86,162.86,0,0,1,5-19.79c9.31-28.83,35.32-40.49,63.21-28.56,19.09,8.17,34.11,21.67,47.8,36.77,48.9,53.82,70.65,117.47,66.82,189.76-1.61,29.92-10,58.05-29.34,81.87a89.31,89.31,0,0,1-36.73,27.38c-27.7,10.92-52.46,4.74-74.32-14.2-23.32-20.18-35.8-46.82-43.89-75.92C1076.81,1254.63,1076.77,1224.4,1077.59,1199.2Zm-217.72-51.44a232.63,232.63,0,0,1,72.33-95.91A104.91,104.91,0,0,1,953.83,1039c28.47-12.87,55.9-.94,63.8,29.22,5.36,20.46,7.74,41.7,10.75,62.67,1.49,10.48,1.69,21.2,2,31.8s.08,21.24.08,31.88c2.23,32.15,1.68,64.19-7.9,95.33-7.28,23.66-17.88,45.49-35.21,63.6-33,34.43-77.49,34.86-111.25,1.14-19.32-19.37-29.18-43.34-33.8-69.75C834.05,1237.38,841.76,1191.81,859.87,1147.76ZM695.3,1546.88c-17.21-18.78-26.21-41.43-31.45-65.91-6.92-32.24-4.93-64.63-1.8-97,2.7-27.58,7-54.93,15.81-81.29,7.54-22.45,17.4-43.58,36.26-59.19a63.16,63.16,0,0,1,30.9-13.8c9.58-1.57,17.72,2.19,25.07,7.9,11.78,9.15,19.87,21.32,27.35,34,26.87,45.69,47.09,116.1,47.17,173.56-.23,26.49-7.7,60.21-31.17,88.33a142.78,142.78,0,0,1-29.69,26.84C755.07,1579.66,720.06,1573.79,695.3,1546.88Zm619.15,288.92c-14,21.44-32.94,37-58.29,43.81-17.79,4.77-34.73,1.33-51-5.79s-31.89-15.1-47.85-22.61c-72.09-33.84-143.48-31.41-214.32,4-14.71,7.35-29.49,14.63-44.71,20.73-29.53,11.82-56.13,4.93-80.35-14.43-20.1-16.12-32.39-37.55-41.46-61-28.87-74.36-17.33-143.79,27.42-208.33,36.69-52.93,86.41-90.44,144.34-117.47,29.22-13.62,59.58-23.55,91.93-26.76,26.91-2.62,52.88,2.11,78.15,10.33,69,22.41,127.8,60.32,173.92,116.64,34.66,42.33,55.59,90.25,56.09,147.75C1347.86,1762.34,1337.18,1801,1314.45,1835.8ZM1432,1520.24c-8,16.31-18.9,30.28-34.31,40.21-27,17.41-56.8,14.32-83.75-8.09-29-24.18-43.58-55.83-48-92.64-4.57-38,2.19-74.71,13.34-110.81,8.73-28.21,19.21-55.75,34.78-81a151.82,151.82,0,0,1,17.21-23.08c16.19-17.76,32.27-19.95,53.43-8.33,11.86,6.53,21,15.92,28.36,27.15,13.46,20.46,20.74,43.3,25.78,67,2.55,11.93,4.78,24,6.18,36.1C1447.33,1387.24,1446.31,1491.29,1432,1520.24Zm827.44,1184.63a63.59,63.59,0,1,1,63.57-63.61A63.61,63.61,0,0,1,2259.48,2704.87Z" transform="translate(-264.23 -540.39)"/>
    <path class="cls-1" d="M2786.9,1250.72A87.81,87.81,0,1,1,2736,1171a45.42,45.42,0,0,0,50.78,75.3C2786.86,1247.79,2786.9,1249.27,2786.9,1250.72Z" transform="translate(-264.23 -540.39)"/>
    <path class="cls-2" d="M2214.89,1804.35s-56.37,438.19-569.2,363.48c0,0-386.32,379.36-835.19,393.59,151.78-40.13,784.15-244.79,868-883.69,0,0,40.88,381.59,231.66,363.4C2006,2032,2151.21,1964.42,2214.89,1804.35Z" transform="translate(-264.23 -540.39)"/>
  </g>
</svg>
