<svg xmlns="http://www.w3.org/2000/svg" width="42.244" height="42.29" viewBox="0 0 42.244 42.29"><defs><style>.a{fill:#fff;}.b{fill:#02a72e;}</style></defs><path class="a" d="M1780.83,3201.207a21.113,21.113,0,1,0-38.82,13.964,2.37,2.37,0,0,1,.253,2.3c-.761,2.122-1.445,4.272-2.238,6.644,2.511-.841,4.794-1.581,7.056-2.383a1.793,1.793,0,0,1,1.721.206,20.46,20.46,0,0,0,13.406,3.039A21.06,21.06,0,0,0,1780.83,3201.207Z" transform="translate(-1738.771 -3182.822)"/><path class="b" d="M1746.237,3225.867c.7-2.109,1.312-4.019,1.987-5.9a2.106,2.106,0,0,0-.224-2.04,18.751,18.751,0,1,1,17.947,8.709,18.181,18.181,0,0,1-11.912-2.7,1.59,1.59,0,0,0-1.529-.183C1750.5,3224.461,1748.467,3225.118,1746.237,3225.867Zm28.54-9.787c.078-.417-.176-.917-.155-1.44a1.434,1.434,0,0,0-.888-1.427c-1.178-.613-2.343-1.25-3.505-1.891a1.3,1.3,0,0,0-1.651.156c-.587.518-1.2,1.006-1.8,1.511a.891.891,0,0,1-1.2.065,17.453,17.453,0,0,1-6.1-7.194,1.017,1.017,0,0,1,.333-1.372c.592-.471,1.154-.981,1.74-1.461a1.157,1.157,0,0,0,.4-1.448,18.125,18.125,0,0,1-.955-2.884,2.725,2.725,0,0,0-2.684-2.414c-.155-.016-.307-.055-.462-.078a4.12,4.12,0,0,0-4.7,3.063,6.239,6.239,0,0,0,.1,2.939c1.955,9.054,7.33,15.066,16.117,17.973A4.146,4.146,0,0,0,1774.776,3216.08Z" transform="translate(-1742.767 -3186.823)"/></svg>